<svg width="47" height="16" viewBox="0 0 47 16" fill="none" xmlns="http://www.w3.org/2000/svg">
<path d="M1 7C0.447715 7 0 7.44772 0 8C0 8.55228 0.447715 9 1 9V7ZM46.5388 8.70711C46.9294 8.31658 46.9294 7.68342 46.5388 7.29289L40.1749 0.928932C39.7844 0.538408 39.1512 0.538408 38.7607 0.928932C38.3701 1.31946 38.3701 1.95262 38.7607 2.34315L44.4175 8L38.7607 13.6569C38.3701 14.0474 38.3701 14.6805 38.7607 15.0711C39.1512 15.4616 39.7844 15.4616 40.1749 15.0711L46.5388 8.70711ZM1 9H45.8317V7H1V9Z" fill="#AE3233"/>
</svg>
