<svg width="161" height="27" viewBox="0 0 161 27" fill="none" xmlns="http://www.w3.org/2000/svg">
<path d="M8.074 6.92092C9.62867 6.92092 10.8607 7.30958 11.77 8.08692C12.694 8.86425 13.156 9.91292 13.156 11.2329C13.156 12.5969 12.694 13.6529 11.77 14.4009C10.8607 15.1343 9.62867 15.5009 8.074 15.5009L7.854 15.6329H4.488V21.4409H2.156V6.92092H8.074ZM7.898 13.6749C8.85133 13.6749 9.55533 13.4843 10.01 13.1029C10.4793 12.7069 10.714 12.1056 10.714 11.2989C10.714 10.5069 10.4793 9.91292 10.01 9.51692C9.55533 9.12092 8.85133 8.92292 7.898 8.92292H4.488V13.6749H7.898ZM9.284 14.1589L14.014 21.4409H11.308L7.26 15.0829L9.284 14.1589ZM21.1465 21.6609C20.0465 21.6609 19.0785 21.4336 18.2425 20.9789C17.4065 20.5243 16.7538 19.8716 16.2845 19.0209C15.8298 18.1556 15.6025 17.1289 15.6025 15.9409C15.6025 14.7529 15.8298 13.7336 16.2845 12.8829C16.7538 12.0176 17.3991 11.3576 18.2205 10.9029C19.0418 10.4483 19.9731 10.2209 21.0145 10.2209C22.0851 10.2209 22.9945 10.4409 23.7425 10.8809C24.4905 11.3209 25.0625 11.9223 25.4585 12.6849C25.8545 13.4476 26.0525 14.3129 26.0525 15.2809C26.0525 15.5449 26.0451 15.7943 26.0305 16.0289C26.0158 16.2636 25.9938 16.4689 25.9645 16.6449H17.1205V14.8409H24.9305L23.7645 15.1929C23.7645 14.1956 23.5151 13.4329 23.0165 12.9049C22.5178 12.3623 21.8358 12.0909 20.9705 12.0909C20.3398 12.0909 19.7898 12.2376 19.3205 12.5309C18.8511 12.8243 18.4918 13.2643 18.2425 13.8509C17.9931 14.4229 17.8685 15.1269 17.8685 15.9629C17.8685 16.7843 18.0005 17.4809 18.2645 18.0529C18.5285 18.6249 18.9025 19.0576 19.3865 19.3509C19.8705 19.6443 20.4425 19.7909 21.1025 19.7909C21.8358 19.7909 22.4298 19.6516 22.8845 19.3729C23.3391 19.0943 23.6985 18.7056 23.9625 18.2069L25.8325 19.0869C25.5685 19.6149 25.2091 20.0769 24.7545 20.4729C24.3145 20.8543 23.7865 21.1476 23.1705 21.3529C22.5545 21.5583 21.8798 21.6609 21.1465 21.6609ZM35.3832 14.3789C35.3832 13.6456 35.1779 13.0809 34.7672 12.6849C34.3712 12.2743 33.8212 12.0689 33.1172 12.0689C32.4572 12.0689 31.8926 12.2229 31.4232 12.5309C30.9539 12.8389 30.6092 13.3376 30.3892 14.0269L28.4092 13.1909C28.6879 12.2963 29.2306 11.5776 30.0372 11.0349C30.8586 10.4923 31.9146 10.2209 33.2052 10.2209C34.0852 10.2209 34.8626 10.3676 35.5372 10.6609C36.2119 10.9396 36.7399 11.3649 37.1212 11.9369C37.5172 12.5089 37.7152 13.2423 37.7152 14.1369V19.0429C37.7152 19.5856 37.9866 19.8569 38.5292 19.8569C38.7932 19.8569 39.0499 19.8203 39.2992 19.7469L39.1672 21.3749C38.8299 21.5363 38.4046 21.6169 37.8912 21.6169C37.4219 21.6169 36.9966 21.5363 36.6152 21.3749C36.2486 21.1989 35.9552 20.9423 35.7352 20.6049C35.5299 20.2529 35.4272 19.8203 35.4272 19.3069V19.1529L35.9112 19.1309C35.7792 19.7029 35.5079 20.1796 35.0972 20.5609C34.6866 20.9276 34.2099 21.2063 33.6672 21.3969C33.1246 21.5729 32.5746 21.6609 32.0172 21.6609C31.3279 21.6609 30.7046 21.5509 30.1472 21.3309C29.6046 21.1109 29.1719 20.7809 28.8492 20.3409C28.5412 19.8863 28.3872 19.3289 28.3872 18.6689C28.3872 17.8476 28.6512 17.1729 29.1792 16.6449C29.7219 16.1169 30.4846 15.7576 31.4672 15.5669L35.7352 14.7309L35.7132 16.3809L32.6112 17.0189C31.9952 17.1363 31.5332 17.3049 31.2252 17.5249C30.9172 17.7449 30.7632 18.0676 30.7632 18.4929C30.7632 18.9036 30.9172 19.2336 31.2252 19.4829C31.5479 19.7176 31.9732 19.8349 32.5012 19.8349C32.8679 19.8349 33.2199 19.7909 33.5572 19.7029C33.9092 19.6149 34.2246 19.4756 34.5032 19.2849C34.7819 19.0796 34.9946 18.8229 35.1412 18.5149C35.3026 18.1923 35.3832 17.8109 35.3832 17.3709V14.3789ZM45.7746 21.6609C44.8653 21.6609 44.0366 21.4336 43.2886 20.9789C42.5553 20.5243 41.9759 19.8716 41.5506 19.0209C41.1253 18.1703 40.9126 17.1509 40.9126 15.9629C40.9126 14.7309 41.1399 13.6896 41.5946 12.8389C42.0493 11.9883 42.6579 11.3429 43.4206 10.9029C44.1833 10.4483 45.0193 10.2209 45.9286 10.2209C46.8673 10.2209 47.6593 10.4776 48.3046 10.9909C48.9499 11.5043 49.3826 12.1716 49.6026 12.9929L49.3386 13.2349V5.49092H51.6926V21.4409H49.6026L49.4266 18.4489L49.7346 18.4709C49.6319 19.1309 49.3899 19.7029 49.0086 20.1869C48.6273 20.6563 48.1506 21.0229 47.5786 21.2869C47.0213 21.5363 46.4199 21.6609 45.7746 21.6609ZM46.2806 19.7689C46.9113 19.7689 47.4539 19.6076 47.9086 19.2849C48.3633 18.9623 48.7153 18.5076 48.9646 17.9209C49.2139 17.3343 49.3386 16.6303 49.3386 15.8089C49.3386 15.0463 49.2139 14.3936 48.9646 13.8509C48.7153 13.2936 48.3633 12.8683 47.9086 12.5749C47.4686 12.2816 46.9553 12.1349 46.3686 12.1349C45.3859 12.1349 44.6233 12.4723 44.0806 13.1469C43.5379 13.8216 43.2666 14.7529 43.2666 15.9409C43.2666 17.1289 43.5306 18.0676 44.0586 18.7569C44.5866 19.4316 45.3273 19.7689 46.2806 19.7689ZM62.4979 21.4409V10.4409H64.5879L64.6979 12.2889C65.0792 11.5849 65.5852 11.0643 66.2159 10.7269C66.8612 10.3896 67.5432 10.2209 68.2619 10.2209C69.0539 10.2209 69.7799 10.4043 70.4399 10.7709C71.1145 11.1229 71.6205 11.6583 71.9579 12.3769C72.1925 11.8929 72.5152 11.4896 72.9259 11.1669C73.3365 10.8443 73.7912 10.6096 74.2899 10.4629C74.7885 10.3016 75.2799 10.2209 75.7639 10.2209C76.4679 10.2209 77.1279 10.3676 77.7439 10.6609C78.3599 10.9543 78.8585 11.4016 79.2399 12.0029C79.6212 12.6043 79.8119 13.3743 79.8119 14.3129V21.4409H77.4579V14.6869C77.4579 13.7923 77.2452 13.1469 76.8199 12.7509C76.3945 12.3549 75.8519 12.1569 75.1919 12.1569C74.6785 12.1569 74.2019 12.2816 73.7619 12.5309C73.3365 12.7803 72.9919 13.1543 72.7279 13.6529C72.4639 14.1369 72.3319 14.7383 72.3319 15.4569V21.4409H69.9779V14.6869C69.9779 13.7923 69.7652 13.1469 69.3399 12.7509C68.9145 12.3549 68.3719 12.1569 67.7119 12.1569C67.2719 12.1569 66.8319 12.2743 66.3919 12.5089C65.9519 12.7436 65.5852 13.1103 65.2919 13.6089C64.9985 14.1076 64.8519 14.7676 64.8519 15.5889V21.4409H62.4979ZM88.1547 10.2209C89.2254 10.2209 90.1714 10.4483 90.9927 10.9029C91.814 11.3576 92.452 12.0176 92.9067 12.8829C93.376 13.7336 93.6107 14.7529 93.6107 15.9409C93.6107 17.1289 93.376 18.1556 92.9067 19.0209C92.452 19.8716 91.814 20.5243 90.9927 20.9789C90.1714 21.4336 89.2254 21.6609 88.1547 21.6609C87.084 21.6609 86.138 21.4336 85.3167 20.9789C84.4954 20.5243 83.85 19.8716 83.3807 19.0209C82.9114 18.1556 82.6767 17.1289 82.6767 15.9409C82.6767 14.7529 82.9114 13.7336 83.3807 12.8829C83.85 12.0176 84.4954 11.3576 85.3167 10.9029C86.138 10.4483 87.084 10.2209 88.1547 10.2209ZM88.1547 12.0689C87.4947 12.0689 86.93 12.2229 86.4607 12.5309C86.006 12.8243 85.654 13.2569 85.4047 13.8289C85.1554 14.4009 85.0307 15.1049 85.0307 15.9409C85.0307 16.7623 85.1554 17.4663 85.4047 18.0529C85.654 18.6249 86.006 19.0649 86.4607 19.3729C86.93 19.6663 87.4947 19.8129 88.1547 19.8129C88.8147 19.8129 89.372 19.6663 89.8267 19.3729C90.2814 19.0649 90.6334 18.6249 90.8827 18.0529C91.132 17.4663 91.2567 16.7623 91.2567 15.9409C91.2567 15.1049 91.132 14.4009 90.8827 13.8289C90.6334 13.2569 90.2814 12.8243 89.8267 12.5309C89.372 12.2229 88.8147 12.0689 88.1547 12.0689ZM96.5721 21.4409V10.4409H98.5741L98.7941 12.4209C99.0874 11.7023 99.5201 11.1596 100.092 10.7929C100.679 10.4116 101.397 10.2209 102.248 10.2209C102.468 10.2209 102.688 10.2429 102.908 10.2869C103.128 10.3163 103.311 10.3676 103.458 10.4409L103.128 12.5089C102.967 12.4503 102.783 12.4063 102.578 12.3769C102.387 12.3329 102.123 12.3109 101.786 12.3109C101.331 12.3109 100.884 12.4356 100.444 12.6849C100.004 12.9196 99.6374 13.2789 99.3441 13.7629C99.0654 14.2469 98.9261 14.8629 98.9261 15.6109V21.4409H96.5721ZM110.242 21.6609C109.142 21.6609 108.174 21.4336 107.338 20.9789C106.502 20.5243 105.85 19.8716 105.38 19.0209C104.926 18.1556 104.698 17.1289 104.698 15.9409C104.698 14.7529 104.926 13.7336 105.38 12.8829C105.85 12.0176 106.495 11.3576 107.316 10.9029C108.138 10.4483 109.069 10.2209 110.11 10.2209C111.181 10.2209 112.09 10.4409 112.838 10.8809C113.586 11.3209 114.158 11.9223 114.554 12.6849C114.95 13.4476 115.148 14.3129 115.148 15.2809C115.148 15.5449 115.141 15.7943 115.126 16.0289C115.112 16.2636 115.09 16.4689 115.06 16.6449H106.216V14.8409H114.026L112.86 15.1929C112.86 14.1956 112.611 13.4329 112.112 12.9049C111.614 12.3623 110.932 12.0909 110.066 12.0909C109.436 12.0909 108.886 12.2376 108.416 12.5309C107.947 12.8243 107.588 13.2643 107.338 13.8509C107.089 14.4229 106.964 15.1269 106.964 15.9629C106.964 16.7843 107.096 17.4809 107.36 18.0529C107.624 18.6249 107.998 19.0576 108.482 19.3509C108.966 19.6443 109.538 19.7909 110.198 19.7909C110.932 19.7909 111.526 19.6516 111.98 19.3729C112.435 19.0943 112.794 18.7056 113.058 18.2069L114.928 19.0869C114.664 19.6149 114.305 20.0769 113.85 20.4729C113.41 20.8543 112.882 21.1476 112.266 21.3529C111.65 21.5583 110.976 21.6609 110.242 21.6609Z" fill="#AE3233"/>
<path d="M135 12.4409C134.448 12.4409 134 12.8886 134 13.4409C134 13.9932 134.448 14.4409 135 14.4409V12.4409ZM160.707 14.148C161.098 13.7575 161.098 13.1243 160.707 12.7338L154.343 6.36985C153.953 5.97933 153.319 5.97933 152.929 6.36985C152.538 6.76037 152.538 7.39354 152.929 7.78406L158.586 13.4409L152.929 19.0978C152.538 19.4883 152.538 20.1215 152.929 20.512C153.319 20.9025 153.953 20.9025 154.343 20.512L160.707 14.148ZM135 14.4409H160V12.4409H135V14.4409Z" fill="#AE3233"/>
</svg>
