<svg width="44" height="44" viewBox="0 0 44 44" fill="none" xmlns="http://www.w3.org/2000/svg">
<g clip-path="url(#clip0_816_11397)">
<path d="M39.6032 20.1065C39.5405 19.5361 39.0157 19.1379 38.4587 19.1898C37.922 19.2478 37.5274 19.7062 37.5331 20.2351C37.5331 20.2662 37.5331 20.2999 37.5367 20.3331C37.5637 20.5592 37.5792 20.7023 37.5948 20.933H32.1441C32.085 20.933 32.0202 20.9408 31.9621 20.947C29.2635 21.0881 27.0896 23.2275 26.905 25.9176C26.8967 25.9435 26.8931 25.9793 26.891 26.0145C26.8864 26.0404 26.8864 26.0726 26.8864 26.1042V36.7681C26.248 36.976 25.6003 37.1461 24.9407 37.2695C24.9563 36.513 24.9562 35.4801 24.9609 34.0568V6.67841C25.1263 6.71263 25.2954 6.74478 25.4608 6.78315C25.4774 6.78626 25.4976 6.79093 25.5163 6.793C25.9664 6.89723 26.4088 7.02737 26.8459 7.17049V21.1632C27.4723 20.6178 28.1854 20.1661 28.9663 19.8312L28.9627 16.3415L28.958 14.941V8.03901C31.4368 9.28553 33.5645 11.1807 35.1062 13.5955C35.4749 14.1752 35.812 14.7906 36.1013 15.4144C36.2823 15.7924 36.651 16.0159 37.0482 16.0159C37.1924 16.0159 37.3402 15.9832 37.4833 15.9153C37.9998 15.6799 38.2269 15.0598 37.9858 14.5402C37.657 13.8303 37.279 13.1366 36.8548 12.478C34.8096 9.28138 31.8558 6.87752 28.4208 5.53456C28.3757 5.5107 28.3358 5.48841 28.2917 5.46819C28.1418 5.41011 27.9914 5.36448 27.8379 5.31263V5.31108C26.61 4.88278 25.339 4.57944 24.0446 4.43115C24.027 4.42959 24.0176 4.43115 24.0057 4.43115C23.9622 4.42959 23.9207 4.42285 23.8818 4.42285C23.371 4.42285 22.9198 4.8133 22.8545 5.34011V38.6648C22.9193 39.1911 23.3663 39.5785 23.8854 39.5785C23.9233 39.5785 23.9622 39.5785 24.0062 39.5738C28.2248 39.089 32.0575 37.1259 34.8941 34.0635C35.6175 33.2883 36.2735 32.4385 36.8553 31.5285C37.2795 30.8689 37.6581 30.1715 37.9863 29.4627C38.2275 28.9473 38.0003 28.3256 37.4838 28.0881C36.9647 27.8459 36.343 28.0704 36.1018 28.5926C35.8125 29.2169 35.4754 29.8241 35.1067 30.4059C34.0888 32.0039 32.8136 33.3739 31.3502 34.4762C30.6009 35.0445 29.8007 35.5423 28.9591 35.9644V26.2898C28.9591 24.4802 30.4308 23.0118 32.2369 23.0118C32.251 23.0118 32.2738 23.0071 32.2878 23.0071H37.5953C37.5881 23.115 37.5798 23.2238 37.573 23.3327C37.5222 23.9026 37.9428 24.4061 38.5163 24.4507C38.5495 24.4527 38.5754 24.4527 38.606 24.4527C39.1391 24.4527 39.5908 24.0509 39.6416 23.5095C39.6535 23.3514 39.6665 23.1907 39.6732 23.031C39.6955 22.6763 39.7074 22.3221 39.7074 21.9659C39.7074 21.3193 39.6706 20.749 39.6037 20.1065H39.6032Z" fill="white"/>
<path d="M22.0008 0C9.8668 0 0 9.86794 0 22.0008C0 34.1336 9.8668 44 22.0008 44C34.1348 44 44 34.1305 44 22.0008C44 9.87105 34.1332 0 22.0008 0ZM22.0008 41.927C11.0134 41.927 2.0722 32.9866 2.0722 22.0008C2.0722 11.0149 11.0134 2.07615 22.0008 2.07615C32.9882 2.07615 41.9278 11.0165 41.9278 22.0008C41.9278 32.9851 32.9913 41.927 22.0008 41.927Z" fill="white"/>
<path d="M21.0953 38.5653C21.0979 38.6348 21.0943 38.7059 21.0813 38.779C20.988 39.2768 20.5555 39.6288 20.0613 39.6288C20.0208 39.6288 19.9799 39.6288 19.943 39.6216C18.4853 39.4536 17.0551 39.1051 15.6877 38.584C15.2847 38.4305 15.0198 38.0463 15.0198 37.6149V24.2568C15.7644 23.9825 16.4593 23.6164 17.093 23.1767V36.8848C17.7256 37.0928 18.3707 37.2608 19.0257 37.3873C19.021 36.9393 19.021 36.3933 19.021 35.7265V6.78322C18.3588 6.91026 17.7111 7.0793 17.0754 7.29033C17.0826 7.869 17.0894 8.74686 17.0894 10.1038C17.093 11.746 17.093 14.0845 17.093 17.4315C17.093 17.4912 17.0857 17.5492 17.0754 17.6047C17.0862 17.6586 17.0919 17.7115 17.0919 17.7681C17.0919 20.721 14.6899 23.1213 11.7398 23.1213H6.65939C6.58161 23.1213 6.5059 23.1104 6.43226 23.0948C6.48204 23.8461 6.58368 24.5881 6.73718 25.3161C7.11884 27.1351 7.82358 28.8763 8.83634 30.4578C9.1423 30.9379 9.00177 31.5793 8.51846 31.8889C8.34474 31.9988 8.15442 32.0507 7.96307 32.0507C7.61926 32.0507 7.28479 31.8806 7.08462 31.5721C5.44387 28.9992 4.50526 26.0571 4.3471 23.0072C4.3305 22.7018 4.32324 22.3927 4.32324 22.0858C4.32324 18.7097 5.27844 15.429 7.08462 12.5963C7.3942 12.1146 8.03723 11.9736 8.51846 12.2816C9.00177 12.5901 9.14282 13.232 8.83634 13.7122C7.41909 15.9278 6.59976 18.4566 6.43174 21.0747C6.50486 21.0581 6.58057 21.0482 6.65887 21.0482H11.7393C13.5455 21.0482 15.0172 19.5767 15.0172 17.7681C15.0172 17.71 15.028 17.654 15.0348 17.598C15.0275 17.5456 15.0192 17.4896 15.0192 17.4321C15.0192 17.4321 15.0192 12.2308 15.0166 9.02426V6.56285C15.0166 6.43322 15.0415 6.30152 15.0898 6.17811C15.1961 5.90381 15.4123 5.69018 15.683 5.58441C17.0505 5.06018 18.4786 4.71692 19.9327 4.54685C20.5508 4.48203 21.0937 4.96581 21.0937 5.57767V22.1081C21.0937 28.4859 21.0937 38.0883 21.0948 38.5659L21.0953 38.5653Z" fill="white"/>
</g>
<defs>
<clipPath id="clip0_816_11397">
<rect width="44" height="44" fill="white"/>
</clipPath>
</defs>
</svg>
