<svg width="30" height="30" viewBox="0 0 30 30" fill="none" xmlns="http://www.w3.org/2000/svg">
<path d="M19.4996 14.9999C19.4996 16.1933 19.0255 17.3379 18.1816 18.1818C17.3377 19.0257 16.1931 19.4999 14.9996 19.4999C13.8061 19.4999 12.6615 19.0257 11.8176 18.1818C10.9737 17.3379 10.4996 16.1933 10.4996 14.9999C10.4996 14.7434 10.5266 14.4929 10.5731 14.2499H8.99961V20.2453C8.99961 20.6623 9.33711 20.9999 9.75411 20.9999H20.2466C20.4465 20.9995 20.638 20.9198 20.7792 20.7783C20.9203 20.6369 20.9996 20.4452 20.9996 20.2453V14.2499H19.4261C19.4726 14.4929 19.4996 14.7434 19.4996 14.9999ZM14.9996 17.9999C15.3937 17.9998 15.7839 17.922 16.1479 17.7711C16.5119 17.6203 16.8427 17.3991 17.1212 17.1204C17.3998 16.8417 17.6208 16.5109 17.7715 16.1467C17.9222 15.7826 17.9997 15.3924 17.9996 14.9984C17.9995 14.6043 17.9218 14.2141 17.7709 13.8501C17.62 13.486 17.3989 13.1553 17.1202 12.8767C16.8415 12.5981 16.5106 12.3772 16.1465 12.2265C15.7824 12.0758 15.3922 11.9983 14.9981 11.9984C14.2023 11.9986 13.4391 12.3149 12.8765 12.8778C12.3139 13.4407 11.9979 14.204 11.9981 14.9999C11.9983 15.7957 12.3146 16.5589 12.8775 17.1215C13.4404 17.6841 14.2038 18 14.9996 17.9999ZM18.5996 11.8499H20.3981C20.5176 11.8499 20.6322 11.8025 20.7168 11.7181C20.8015 11.6338 20.8492 11.5193 20.8496 11.3999V9.60135C20.8496 9.48161 20.802 9.36677 20.7174 9.28209C20.6327 9.19742 20.5179 9.14985 20.3981 9.14985H18.5996C18.4799 9.14985 18.365 9.19742 18.2803 9.28209C18.1957 9.36677 18.1481 9.48161 18.1481 9.60135V11.3999C18.1496 11.6474 18.3521 11.8499 18.5996 11.8499ZM14.9996 0.599854C11.1805 0.599854 7.51779 2.11699 4.81727 4.81751C2.11675 7.51804 0.599609 11.1807 0.599609 14.9999C0.599609 18.819 2.11675 22.4817 4.81727 25.1822C7.51779 27.8827 11.1805 29.3999 14.9996 29.3999C16.8906 29.3999 18.7632 29.0274 20.5102 28.3037C22.2573 27.58 23.8448 26.5194 25.1819 25.1822C26.5191 23.845 27.5798 22.2576 28.3035 20.5105C29.0271 18.7634 29.3996 16.8909 29.3996 14.9999C29.3996 13.1088 29.0271 11.2363 28.3035 9.48921C27.5798 7.74212 26.5191 6.15468 25.1819 4.81751C23.8448 3.48035 22.2573 2.41966 20.5102 1.69599C18.7632 0.972321 16.8906 0.599854 14.9996 0.599854ZM22.4996 20.8334C22.4996 21.7499 21.7496 22.4999 20.8331 22.4999H9.16611C8.24961 22.4999 7.49961 21.7499 7.49961 20.8334V9.16635C7.49961 8.24985 8.24961 7.49985 9.16611 7.49985H20.8331C21.7496 7.49985 22.4996 8.24985 22.4996 9.16635V20.8334Z" fill="#AE3233"/>
</svg>
