<svg width="22" height="13" viewBox="0 0 22 13" fill="none" xmlns="http://www.w3.org/2000/svg">
<path d="M0.659372 0.601022C0.964104 0.296382 1.37735 0.125244 1.80825 0.125244C2.23914 0.125244 2.65239 0.296382 2.95712 0.601022L11.0009 8.64477L19.0446 0.601022C19.3511 0.305016 19.7616 0.141224 20.1876 0.144926C20.6137 0.148629 21.0213 0.319529 21.3226 0.620817C21.6239 0.922105 21.7948 1.32968 21.7985 1.75575C21.8022 2.18181 21.6384 2.59229 21.3424 2.89877L12.1497 12.0914C11.845 12.396 11.4318 12.5672 11.0009 12.5672C10.57 12.5672 10.1567 12.396 9.85199 12.0914L0.659372 2.89877C0.354731 2.59404 0.183594 2.18079 0.183594 1.7499C0.183594 1.31901 0.354731 0.905755 0.659372 0.601022Z" fill="#AE3233"/>
</svg>
