<svg width="357" height="94" viewBox="0 0 357 94" fill="none" xmlns="http://www.w3.org/2000/svg">
<path d="M97.4602 79L78 86H345.773L352 79H97.4602Z" fill="url(#paint0_linear_335_944)"/>
<path d="M23.56 10.6V14.28H14.52V37H10.24V14.28H1.2V10.6H23.56ZM25.3903 37V17H29.0303L29.4303 20.6C29.9636 19.2933 30.7503 18.3067 31.7903 17.64C32.857 16.9467 34.1636 16.6 35.7103 16.6C36.1103 16.6 36.5103 16.64 36.9103 16.72C37.3103 16.7733 37.6436 16.8667 37.9103 17L37.3103 20.76C37.017 20.6533 36.6836 20.5733 36.3103 20.52C35.9636 20.44 35.4836 20.4 34.8703 20.4C34.0436 20.4 33.2303 20.6267 32.4303 21.08C31.6303 21.5067 30.9636 22.16 30.4303 23.04C29.9236 23.92 29.6703 25.04 29.6703 26.4V37H25.3903ZM53.0831 24.16C53.0831 22.8267 52.7098 21.8 51.9631 21.08C51.2431 20.3333 50.2431 19.96 48.9631 19.96C47.7631 19.96 46.7365 20.24 45.8831 20.8C45.0298 21.36 44.4031 22.2667 44.0031 23.52L40.4031 22C40.9098 20.3733 41.8965 19.0667 43.3631 18.08C44.8565 17.0933 46.7765 16.6 49.1231 16.6C50.7231 16.6 52.1365 16.8667 53.3631 17.4C54.5898 17.9067 55.5498 18.68 56.2431 19.72C56.9631 20.76 57.3231 22.0933 57.3231 23.72V32.64C57.3231 33.6267 57.8165 34.12 58.8031 34.12C59.2831 34.12 59.7498 34.0533 60.2031 33.92L59.9631 36.88C59.3498 37.1733 58.5765 37.32 57.6431 37.32C56.7898 37.32 56.0165 37.1733 55.3231 36.88C54.6565 36.56 54.1231 36.0933 53.7231 35.48C53.3498 34.84 53.1631 34.0533 53.1631 33.12V32.84L54.0431 32.8C53.8031 33.84 53.3098 34.7067 52.5631 35.4C51.8165 36.0667 50.9498 36.5733 49.9631 36.92C48.9765 37.24 47.9765 37.4 46.9631 37.4C45.7098 37.4 44.5765 37.2 43.5631 36.8C42.5765 36.4 41.7898 35.8 41.2031 35C40.6431 34.1733 40.3631 33.16 40.3631 31.96C40.3631 30.4667 40.8431 29.24 41.8031 28.28C42.7898 27.32 44.1765 26.6667 45.9631 26.32L53.7231 24.8L53.6831 27.8L48.0431 28.96C46.9231 29.1733 46.0831 29.48 45.5231 29.88C44.9631 30.28 44.6831 30.8667 44.6831 31.64C44.6831 32.3867 44.9631 32.9867 45.5231 33.44C46.1098 33.8667 46.8831 34.08 47.8431 34.08C48.5098 34.08 49.1498 34 49.7631 33.84C50.4031 33.68 50.9765 33.4267 51.4831 33.08C51.9898 32.7067 52.3765 32.24 52.6431 31.68C52.9365 31.0933 53.0831 30.4 53.0831 29.6V24.16ZM66.4956 13.64C65.5623 13.64 64.8423 13.4133 64.3356 12.96C63.8556 12.48 63.6156 11.8133 63.6156 10.96C63.6156 10.1067 63.8556 9.45333 64.3356 9C64.8423 8.54667 65.5623 8.32 66.4956 8.32C67.4023 8.32 68.0956 8.54667 68.5756 9C69.0823 9.45333 69.3356 10.1067 69.3356 10.96C69.3356 11.8133 69.0823 12.48 68.5756 12.96C68.0956 13.4133 67.4023 13.64 66.4956 13.64ZM68.6156 17V37H64.3356V17H68.6156ZM75.3122 37V17H79.1122L79.3922 22.2L78.8322 21.64C79.2055 20.4933 79.7389 19.5467 80.4322 18.8C81.1522 18.0267 81.9922 17.4667 82.9522 17.12C83.9389 16.7733 84.9789 16.6 86.0722 16.6C87.4855 16.6 88.7522 16.88 89.8722 17.44C91.0189 17.9733 91.9255 18.7867 92.5922 19.88C93.2589 20.9733 93.5922 22.36 93.5922 24.04V37H89.3122V25.36C89.3122 23.3867 88.8989 22.0267 88.0722 21.28C87.2722 20.5067 86.2589 20.12 85.0322 20.12C84.1522 20.12 83.2989 20.3333 82.4722 20.76C81.6455 21.16 80.9522 21.8133 80.3922 22.72C79.8589 23.6267 79.5922 24.84 79.5922 26.36V37H75.3122ZM117.747 37L109.987 10.6H114.507L120.427 33.28L126.187 10.6H130.587L136.387 33.32L142.267 10.6H146.627L138.907 37H133.867L129.667 21.16L128.347 15.08H128.307L126.987 21.16L122.827 37H117.747ZM153.214 13.64C152.281 13.64 151.561 13.4133 151.054 12.96C150.574 12.48 150.334 11.8133 150.334 10.96C150.334 10.1067 150.574 9.45333 151.054 9C151.561 8.54667 152.281 8.32 153.214 8.32C154.121 8.32 154.814 8.54667 155.294 9C155.801 9.45333 156.054 10.1067 156.054 10.96C156.054 11.8133 155.801 12.48 155.294 12.96C154.814 13.4133 154.121 13.64 153.214 13.64ZM155.334 17V37H151.054V17H155.334ZM167.871 11.12V31C167.871 31.9867 168.124 32.7067 168.631 33.16C169.164 33.6133 169.871 33.84 170.751 33.84C171.471 33.84 172.098 33.7333 172.631 33.52C173.164 33.28 173.658 32.96 174.111 32.56L175.071 35.68C174.458 36.2133 173.698 36.64 172.791 36.96C171.911 37.2533 170.924 37.4 169.831 37.4C168.684 37.4 167.631 37.2133 166.671 36.84C165.711 36.4667 164.964 35.8667 164.431 35.04C163.898 34.1867 163.618 33.08 163.591 31.72V12.32L167.871 11.12ZM174.751 17V20.36H159.751V17H174.751ZM179.14 37V8H183.42V20.2C184.087 18.9467 184.98 18.04 186.1 17.48C187.247 16.8933 188.514 16.6 189.9 16.6C191.314 16.6 192.58 16.88 193.7 17.44C194.847 17.9733 195.754 18.7867 196.42 19.88C197.087 20.9733 197.42 22.36 197.42 24.04V37H193.14V25.4C193.14 23.4267 192.727 22.0533 191.9 21.28C191.1 20.5067 190.087 20.12 188.86 20.12C188.007 20.12 187.154 20.3333 186.3 20.76C185.474 21.16 184.78 21.8267 184.22 22.76C183.687 23.6667 183.42 24.8933 183.42 26.44V37H179.14ZM236.177 10.6V14.28H227.137V37H222.857V14.28H213.817V10.6H236.177ZM245.203 16.6C247.15 16.6 248.87 17.0133 250.363 17.84C251.856 18.6667 253.016 19.8667 253.843 21.44C254.696 22.9867 255.123 24.84 255.123 27C255.123 29.16 254.696 31.0267 253.843 32.6C253.016 34.1467 251.856 35.3333 250.363 36.16C248.87 36.9867 247.15 37.4 245.203 37.4C243.256 37.4 241.536 36.9867 240.043 36.16C238.55 35.3333 237.376 34.1467 236.523 32.6C235.67 31.0267 235.243 29.16 235.243 27C235.243 24.84 235.67 22.9867 236.523 21.44C237.376 19.8667 238.55 18.6667 240.043 17.84C241.536 17.0133 243.256 16.6 245.203 16.6ZM245.203 19.96C244.003 19.96 242.976 20.24 242.123 20.8C241.296 21.3333 240.656 22.12 240.203 23.16C239.75 24.2 239.523 25.48 239.523 27C239.523 28.4933 239.75 29.7733 240.203 30.84C240.656 31.88 241.296 32.68 242.123 33.24C242.976 33.7733 244.003 34.04 245.203 34.04C246.403 34.04 247.416 33.7733 248.243 33.24C249.07 32.68 249.71 31.88 250.163 30.84C250.616 29.7733 250.843 28.4933 250.843 27C250.843 25.48 250.616 24.2 250.163 23.16C249.71 22.12 249.07 21.3333 248.243 20.8C247.416 20.24 246.403 19.96 245.203 19.96ZM268.108 37.4C266.108 37.4 264.281 37.0133 262.628 36.24C260.974 35.4667 259.668 34.3733 258.708 32.96L261.668 30.4C262.254 31.4933 263.094 32.3733 264.188 33.04C265.308 33.68 266.641 34 268.188 34C269.414 34 270.388 33.7867 271.108 33.36C271.828 32.9333 272.188 32.3333 272.188 31.56C272.188 31.0533 272.014 30.6133 271.668 30.24C271.348 29.84 270.721 29.5333 269.788 29.32L265.588 28.44C263.454 28.0133 261.934 27.3333 261.028 26.4C260.121 25.44 259.668 24.2267 259.668 22.76C259.668 21.6667 259.988 20.6533 260.628 19.72C261.268 18.7867 262.201 18.04 263.428 17.48C264.681 16.8933 266.174 16.6 267.908 16.6C269.908 16.6 271.614 16.96 273.028 17.68C274.441 18.3733 275.521 19.3733 276.268 20.68L273.308 23.16C272.801 22.0933 272.054 21.3067 271.068 20.8C270.081 20.2667 269.054 20 267.988 20C267.134 20 266.401 20.1067 265.788 20.32C265.174 20.5333 264.708 20.8267 264.388 21.2C264.068 21.5733 263.908 22.0133 263.908 22.52C263.908 23.0533 264.108 23.52 264.508 23.92C264.908 24.32 265.628 24.6267 266.668 24.84L271.228 25.8C273.148 26.1733 274.494 26.8133 275.268 27.72C276.068 28.6 276.468 29.68 276.468 30.96C276.468 32.24 276.134 33.3733 275.468 34.36C274.801 35.32 273.841 36.0667 272.588 36.6C271.334 37.1333 269.841 37.4 268.108 37.4ZM290.44 37.4C288.44 37.4 286.68 36.9867 285.16 36.16C283.64 35.3333 282.454 34.1467 281.6 32.6C280.774 31.0267 280.36 29.16 280.36 27C280.36 24.84 280.774 22.9867 281.6 21.44C282.454 19.8667 283.627 18.6667 285.12 17.84C286.614 17.0133 288.307 16.6 290.2 16.6C292.147 16.6 293.8 17 295.16 17.8C296.52 18.6 297.56 19.6933 298.28 21.08C299 22.4667 299.36 24.04 299.36 25.8C299.36 26.28 299.347 26.7333 299.32 27.16C299.294 27.5867 299.254 27.96 299.2 28.28H283.12V25H297.32L295.2 25.64C295.2 23.8267 294.747 22.44 293.84 21.48C292.934 20.4933 291.694 20 290.12 20C288.974 20 287.974 20.2667 287.12 20.8C286.267 21.3333 285.614 22.1333 285.16 23.2C284.707 24.24 284.48 25.52 284.48 27.04C284.48 28.5333 284.72 29.8 285.2 30.84C285.68 31.88 286.36 32.6667 287.24 33.2C288.12 33.7333 289.16 34 290.36 34C291.694 34 292.774 33.7467 293.6 33.24C294.427 32.7333 295.08 32.0267 295.56 31.12L298.96 32.72C298.48 33.68 297.827 34.52 297 35.24C296.2 35.9333 295.24 36.4667 294.12 36.84C293 37.2133 291.774 37.4 290.44 37.4ZM14.88 71.16C14.88 69.8267 14.5067 68.8 13.76 68.08C13.04 67.3333 12.04 66.96 10.76 66.96C9.56 66.96 8.53333 67.24 7.68 67.8C6.82667 68.36 6.2 69.2667 5.8 70.52L2.2 69C2.70667 67.3733 3.69333 66.0667 5.16 65.08C6.65333 64.0933 8.57333 63.6 10.92 63.6C12.52 63.6 13.9333 63.8667 15.16 64.4C16.3867 64.9067 17.3467 65.68 18.04 66.72C18.76 67.76 19.12 69.0933 19.12 70.72V79.64C19.12 80.6267 19.6133 81.12 20.6 81.12C21.08 81.12 21.5467 81.0533 22 80.92L21.76 83.88C21.1467 84.1733 20.3733 84.32 19.44 84.32C18.5867 84.32 17.8133 84.1733 17.12 83.88C16.4533 83.56 15.92 83.0933 15.52 82.48C15.1467 81.84 14.96 81.0533 14.96 80.12V79.84L15.84 79.8C15.6 80.84 15.1067 81.7067 14.36 82.4C13.6133 83.0667 12.7467 83.5733 11.76 83.92C10.7733 84.24 9.77333 84.4 8.76 84.4C7.50667 84.4 6.37333 84.2 5.36 83.8C4.37333 83.4 3.58667 82.8 3 82C2.44 81.1733 2.16 80.16 2.16 78.96C2.16 77.4667 2.64 76.24 3.6 75.28C4.58667 74.32 5.97333 73.6667 7.76 73.32L15.52 71.8L15.48 74.8L9.84 75.96C8.72 76.1733 7.88 76.48 7.32 76.88C6.76 77.28 6.48 77.8667 6.48 78.64C6.48 79.3867 6.76 79.9867 7.32 80.44C7.90667 80.8667 8.68 81.08 9.64 81.08C10.3067 81.08 10.9467 81 11.56 80.84C12.2 80.68 12.7733 80.4267 13.28 80.08C13.7867 79.7067 14.1733 79.24 14.44 78.68C14.7333 78.0933 14.88 77.4 14.88 76.6V71.16ZM26.1325 84V64H29.9325L30.2125 69.2L29.6525 68.64C30.0258 67.4933 30.5592 66.5467 31.2525 65.8C31.9725 65.0267 32.8125 64.4667 33.7725 64.12C34.7592 63.7733 35.7992 63.6 36.8925 63.6C38.3058 63.6 39.5725 63.88 40.6925 64.44C41.8392 64.9733 42.7458 65.7867 43.4125 66.88C44.0792 67.9733 44.4125 69.36 44.4125 71.04V84H40.1325V72.36C40.1325 70.3867 39.7192 69.0267 38.8925 68.28C38.0925 67.5067 37.0792 67.12 35.8525 67.12C34.9725 67.12 34.1192 67.3333 33.2925 67.76C32.4658 68.16 31.7725 68.8133 31.2125 69.72C30.6792 70.6267 30.4125 71.84 30.4125 73.36V84H26.1325ZM58.5781 84.4C56.9248 84.4 55.4181 83.9867 54.0581 83.16C52.7248 82.3333 51.6715 81.1467 50.8981 79.6C50.1248 78.0533 49.7381 76.2 49.7381 74.04C49.7381 71.8 50.1515 69.9067 50.9781 68.36C51.8048 66.8133 52.9115 65.64 54.2981 64.84C55.6848 64.0133 57.2048 63.6 58.8581 63.6C60.5648 63.6 62.0048 64.0667 63.1781 65C64.3515 65.9333 65.1381 67.1467 65.5381 68.64L65.0581 69.08V55H69.3381V84H65.5381L65.2181 78.56L65.7781 78.6C65.5915 79.8 65.1515 80.84 64.4581 81.72C63.7648 82.5733 62.8981 83.24 61.8581 83.72C60.8448 84.1733 59.7515 84.4 58.5781 84.4ZM59.4981 80.96C60.6448 80.96 61.6315 80.6667 62.4581 80.08C63.2848 79.4933 63.9248 78.6667 64.3781 77.6C64.8315 76.5333 65.0581 75.2533 65.0581 73.76C65.0581 72.3733 64.8315 71.1867 64.3781 70.2C63.9248 69.1867 63.2848 68.4133 62.4581 67.88C61.6581 67.3467 60.7248 67.08 59.6581 67.08C57.8715 67.08 56.4848 67.6933 55.4981 68.92C54.5115 70.1467 54.0181 71.84 54.0181 74C54.0181 76.16 54.4981 77.8667 55.4581 79.12C56.4181 80.3467 57.7648 80.96 59.4981 80.96ZM100.304 84.4C97.8241 84.4 95.6774 83.8533 93.8641 82.76C92.0507 81.6667 90.6374 80.12 89.6241 78.12C88.6107 76.0933 88.1041 73.6533 88.1041 70.8C88.1041 68 88.6241 65.5867 89.6641 63.56C90.7307 61.5333 92.2241 59.9733 94.1441 58.88C96.0907 57.76 98.3174 57.2 100.824 57.2C103.571 57.2 105.784 57.7067 107.464 58.72C109.171 59.7333 110.531 61.3067 111.544 63.44L107.584 65.32C107.077 63.8533 106.237 62.76 105.064 62.04C103.917 61.2933 102.517 60.92 100.864 60.92C99.2107 60.92 97.7574 61.3067 96.5041 62.08C95.2774 62.8533 94.3174 63.9867 93.6241 65.48C92.9307 66.9467 92.5841 68.72 92.5841 70.8C92.5841 72.9067 92.8907 74.7067 93.5041 76.2C94.1174 77.6667 95.0374 78.7867 96.2641 79.56C97.5174 80.3333 99.0507 80.72 100.864 80.72C101.851 80.72 102.771 80.6 103.624 80.36C104.477 80.0933 105.224 79.72 105.864 79.24C106.504 78.7333 106.997 78.1067 107.344 77.36C107.717 76.5867 107.904 75.68 107.904 74.64V73.88H100.224V70.4H111.704V84H108.504L108.264 78.68L109.064 79.08C108.424 80.76 107.357 82.0667 105.864 83C104.397 83.9333 102.544 84.4 100.304 84.4ZM126.729 84.4C124.729 84.4 122.969 83.9867 121.449 83.16C119.929 82.3333 118.743 81.1467 117.889 79.6C117.063 78.0267 116.649 76.16 116.649 74C116.649 71.84 117.063 69.9867 117.889 68.44C118.743 66.8667 119.916 65.6667 121.409 64.84C122.903 64.0133 124.596 63.6 126.489 63.6C128.436 63.6 130.089 64 131.449 64.8C132.809 65.6 133.849 66.6933 134.569 68.08C135.289 69.4667 135.649 71.04 135.649 72.8C135.649 73.28 135.636 73.7333 135.609 74.16C135.583 74.5867 135.543 74.96 135.489 75.28H119.409V72H133.609L131.489 72.64C131.489 70.8267 131.036 69.44 130.129 68.48C129.223 67.4933 127.983 67 126.409 67C125.263 67 124.263 67.2667 123.409 67.8C122.556 68.3333 121.903 69.1333 121.449 70.2C120.996 71.24 120.769 72.52 120.769 74.04C120.769 75.5333 121.009 76.8 121.489 77.84C121.969 78.88 122.649 79.6667 123.529 80.2C124.409 80.7333 125.449 81 126.649 81C127.983 81 129.063 80.7467 129.889 80.24C130.716 79.7333 131.369 79.0267 131.849 78.12L135.249 79.72C134.769 80.68 134.116 81.52 133.289 82.24C132.489 82.9333 131.529 83.4667 130.409 83.84C129.289 84.2133 128.063 84.4 126.729 84.4ZM146.426 58.12V78C146.426 78.9867 146.679 79.7067 147.186 80.16C147.719 80.6133 148.426 80.84 149.306 80.84C150.026 80.84 150.652 80.7333 151.186 80.52C151.719 80.28 152.212 79.96 152.666 79.56L153.626 82.68C153.012 83.2133 152.252 83.64 151.346 83.96C150.466 84.2533 149.479 84.4 148.386 84.4C147.239 84.4 146.186 84.2133 145.226 83.84C144.266 83.4667 143.519 82.8667 142.986 82.04C142.452 81.1867 142.172 80.08 142.146 78.72V59.32L146.426 58.12ZM153.306 64V67.36H138.306V64H153.306ZM172.707 60.64C171.773 60.64 171.053 60.4133 170.547 59.96C170.067 59.48 169.827 58.8133 169.827 57.96C169.827 57.1067 170.067 56.4533 170.547 56C171.053 55.5467 171.773 55.32 172.707 55.32C173.613 55.32 174.307 55.5467 174.787 56C175.293 56.4533 175.547 57.1067 175.547 57.96C175.547 58.8133 175.293 59.48 174.787 59.96C174.307 60.4133 173.613 60.64 172.707 60.64ZM174.827 64V84H170.547V64H174.827ZM181.523 84V64H185.323L185.603 69.2L185.043 68.64C185.416 67.4933 185.95 66.5467 186.643 65.8C187.363 65.0267 188.203 64.4667 189.163 64.12C190.15 63.7733 191.19 63.6 192.283 63.6C193.696 63.6 194.963 63.88 196.083 64.44C197.23 64.9733 198.136 65.7867 198.803 66.88C199.47 67.9733 199.803 69.36 199.803 71.04V84H195.523V72.36C195.523 70.3867 195.11 69.0267 194.283 68.28C193.483 67.5067 192.47 67.12 191.243 67.12C190.363 67.12 189.51 67.3333 188.683 67.76C187.856 68.16 187.163 68.8133 186.603 69.72C186.07 70.6267 185.803 71.84 185.803 73.36V84H181.523ZM228.897 57.2C231.27 57.2 233.323 57.6533 235.057 58.56C236.79 59.44 238.257 60.7467 239.457 62.48L236.577 65.24C235.563 63.6933 234.417 62.5867 233.137 61.92C231.883 61.2267 230.39 60.88 228.657 60.88C227.377 60.88 226.323 61.0533 225.497 61.4C224.67 61.7467 224.057 62.2133 223.657 62.8C223.283 63.36 223.097 64 223.097 64.72C223.097 65.5467 223.377 66.2667 223.937 66.88C224.523 67.4933 225.603 67.9733 227.177 68.32L232.537 69.52C235.097 70.08 236.91 70.9333 237.977 72.08C239.043 73.2267 239.577 74.68 239.577 76.44C239.577 78.0667 239.137 79.48 238.257 80.68C237.377 81.88 236.15 82.8 234.577 83.44C233.03 84.08 231.203 84.4 229.097 84.4C227.23 84.4 225.55 84.16 224.057 83.68C222.563 83.2 221.257 82.5467 220.137 81.72C219.017 80.8933 218.097 79.9467 217.377 78.88L220.337 75.92C220.897 76.8533 221.603 77.6933 222.457 78.44C223.31 79.16 224.297 79.72 225.417 80.12C226.563 80.52 227.83 80.72 229.217 80.72C230.443 80.72 231.497 80.5733 232.377 80.28C233.283 79.9867 233.963 79.56 234.417 79C234.897 78.4133 235.137 77.72 235.137 76.92C235.137 76.1467 234.87 75.4667 234.337 74.88C233.83 74.2933 232.87 73.84 231.457 73.52L225.657 72.2C224.057 71.8533 222.737 71.36 221.697 70.72C220.657 70.08 219.883 69.3067 219.377 68.4C218.87 67.4667 218.617 66.4267 218.617 65.28C218.617 63.7867 219.017 62.44 219.817 61.24C220.643 60.0133 221.83 59.04 223.377 58.32C224.923 57.5733 226.763 57.2 228.897 57.2ZM244.961 84V55H249.241V67.2C249.907 65.9467 250.801 65.04 251.921 64.48C253.067 63.8933 254.334 63.6 255.721 63.6C257.134 63.6 258.401 63.88 259.521 64.44C260.667 64.9733 261.574 65.7867 262.241 66.88C262.907 67.9733 263.241 69.36 263.241 71.04V84H258.961V72.4C258.961 70.4267 258.547 69.0533 257.721 68.28C256.921 67.5067 255.907 67.12 254.681 67.12C253.827 67.12 252.974 67.3333 252.121 67.76C251.294 68.16 250.601 68.8267 250.041 69.76C249.507 70.6667 249.241 71.8933 249.241 73.44V84H244.961ZM281.286 71.16C281.286 69.8267 280.913 68.8 280.166 68.08C279.446 67.3333 278.446 66.96 277.166 66.96C275.966 66.96 274.94 67.24 274.086 67.8C273.233 68.36 272.606 69.2667 272.206 70.52L268.606 69C269.113 67.3733 270.1 66.0667 271.566 65.08C273.06 64.0933 274.98 63.6 277.326 63.6C278.926 63.6 280.34 63.8667 281.566 64.4C282.793 64.9067 283.753 65.68 284.446 66.72C285.166 67.76 285.526 69.0933 285.526 70.72V79.64C285.526 80.6267 286.02 81.12 287.006 81.12C287.486 81.12 287.953 81.0533 288.406 80.92L288.166 83.88C287.553 84.1733 286.78 84.32 285.846 84.32C284.993 84.32 284.22 84.1733 283.526 83.88C282.86 83.56 282.326 83.0933 281.926 82.48C281.553 81.84 281.366 81.0533 281.366 80.12V79.84L282.246 79.8C282.006 80.84 281.513 81.7067 280.766 82.4C280.02 83.0667 279.153 83.5733 278.166 83.92C277.18 84.24 276.18 84.4 275.166 84.4C273.913 84.4 272.78 84.2 271.766 83.8C270.78 83.4 269.993 82.8 269.406 82C268.846 81.1733 268.566 80.16 268.566 78.96C268.566 77.4667 269.046 76.24 270.006 75.28C270.993 74.32 272.38 73.6667 274.166 73.32L281.926 71.8L281.886 74.8L276.246 75.96C275.126 76.1733 274.286 76.48 273.726 76.88C273.166 77.28 272.886 77.8667 272.886 78.64C272.886 79.3867 273.166 79.9867 273.726 80.44C274.313 80.8667 275.086 81.08 276.046 81.08C276.713 81.08 277.353 81 277.966 80.84C278.606 80.68 279.18 80.4267 279.686 80.08C280.193 79.7067 280.58 79.24 280.846 78.68C281.14 78.0933 281.286 77.4 281.286 76.6V71.16ZM292.539 92.4V64H296.339L296.659 69.6L296.099 68.92C296.419 67.88 296.912 66.96 297.579 66.16C298.245 65.36 299.072 64.7333 300.059 64.28C301.072 63.8267 302.179 63.6 303.379 63.6C305.005 63.6 306.485 64.0133 307.819 64.84C309.152 65.6667 310.205 66.8533 310.979 68.4C311.752 69.92 312.139 71.7733 312.139 73.96C312.139 76.1467 311.739 78.0267 310.939 79.6C310.165 81.1467 309.099 82.3333 307.739 83.16C306.405 83.9867 304.912 84.4 303.259 84.4C301.552 84.4 300.099 83.96 298.899 83.08C297.699 82.1733 296.845 81.0267 296.339 79.64L296.819 78.96V92.4H292.539ZM302.339 80.92C304.072 80.92 305.419 80.3067 306.379 79.08C307.365 77.8533 307.859 76.16 307.859 74C307.859 71.84 307.379 70.1467 306.419 68.92C305.459 67.6667 304.125 67.04 302.419 67.04C301.299 67.04 300.312 67.3333 299.459 67.92C298.632 68.48 297.979 69.28 297.499 70.32C297.045 71.3333 296.819 72.56 296.819 74C296.819 75.4133 297.045 76.64 297.499 77.68C297.952 78.72 298.592 79.52 299.419 80.08C300.245 80.64 301.219 80.92 302.339 80.92ZM326.417 84.4C324.417 84.4 322.657 83.9867 321.137 83.16C319.617 82.3333 318.43 81.1467 317.577 79.6C316.75 78.0267 316.337 76.16 316.337 74C316.337 71.84 316.75 69.9867 317.577 68.44C318.43 66.8667 319.604 65.6667 321.097 64.84C322.59 64.0133 324.284 63.6 326.177 63.6C328.124 63.6 329.777 64 331.137 64.8C332.497 65.6 333.537 66.6933 334.257 68.08C334.977 69.4667 335.337 71.04 335.337 72.8C335.337 73.28 335.324 73.7333 335.297 74.16C335.27 74.5867 335.23 74.96 335.177 75.28H319.097V72H333.297L331.177 72.64C331.177 70.8267 330.724 69.44 329.817 68.48C328.91 67.4933 327.67 67 326.097 67C324.95 67 323.95 67.2667 323.097 67.8C322.244 68.3333 321.59 69.1333 321.137 70.2C320.684 71.24 320.457 72.52 320.457 74.04C320.457 75.5333 320.697 76.8 321.177 77.84C321.657 78.88 322.337 79.6667 323.217 80.2C324.097 80.7333 325.137 81 326.337 81C327.67 81 328.75 80.7467 329.577 80.24C330.404 79.7333 331.057 79.0267 331.537 78.12L334.937 79.72C334.457 80.68 333.804 81.52 332.977 82.24C332.177 82.9333 331.217 83.4667 330.097 83.84C328.977 84.2133 327.75 84.4 326.417 84.4ZM345.262 57.6V68.16L344.702 75.6H341.342L340.782 68.16V57.6H345.262ZM343.022 78.72C343.929 78.72 344.649 78.9867 345.182 79.52C345.742 80.0267 346.022 80.7067 346.022 81.56C346.022 82.4133 345.742 83.0933 345.182 83.6C344.649 84.1067 343.929 84.36 343.022 84.36C342.142 84.36 341.422 84.1067 340.862 83.6C340.329 83.0933 340.062 82.4133 340.062 81.56C340.062 80.7067 340.329 80.0267 340.862 79.52C341.422 78.9867 342.142 78.72 343.022 78.72Z" fill="black"/>
<defs>
<linearGradient id="paint0_linear_335_944" x1="149.068" y1="72.4886" x2="229.028" y2="261.033" gradientUnits="userSpaceOnUse">
<stop stop-color="#AE3233"/>
<stop offset="0.9874" stop-color="#881C24"/>
</linearGradient>
</defs>
</svg>
