<svg width="30" height="30" viewBox="0 0 30 30" fill="none" xmlns="http://www.w3.org/2000/svg">
<path d="M14.9996 0.599976C7.04661 0.599976 0.599609 7.04698 0.599609 15C0.599609 22.953 7.04661 29.4 14.9996 29.4C22.9526 29.4 29.3996 22.953 29.3996 15C29.3996 7.04698 22.9526 0.599976 14.9996 0.599976ZM20.8571 12.396C20.8631 12.519 20.8646 12.642 20.8646 12.762C20.8646 16.512 18.0131 20.8335 12.7961 20.8335C11.2546 20.836 9.74506 20.3933 8.44911 19.5585C8.66961 19.5855 8.89611 19.596 9.12561 19.596C10.4546 19.596 11.6771 19.1445 12.6476 18.3825C12.0562 18.3709 11.4831 18.175 11.0083 17.8223C10.5334 17.4695 10.1805 16.9774 9.99861 16.4145C10.4233 16.4952 10.8609 16.4783 11.2781 16.365C10.6362 16.2352 10.0589 15.8873 9.64417 15.3805C9.22944 14.8736 9.00277 14.2389 9.00261 13.584V13.5495C9.38511 13.761 9.82311 13.89 10.2881 13.905C9.68631 13.5044 9.26029 12.889 9.09718 12.1847C8.93406 11.4804 9.04619 10.7404 9.41061 10.116C10.123 10.992 11.0115 11.7086 12.0185 12.2194C13.0254 12.7303 14.1284 13.024 15.2561 13.0815C15.1127 12.4729 15.1744 11.8341 15.4316 11.2642C15.6888 10.6944 16.127 10.2255 16.6782 9.93037C17.2294 9.63528 17.8626 9.53056 18.4795 9.63248C19.0963 9.73441 19.6622 10.0373 20.0891 10.494C20.7239 10.3684 21.3326 10.1356 21.8891 9.80548C21.6776 10.4627 21.2346 11.0207 20.6426 11.376C21.2049 11.3083 21.7539 11.1571 22.2716 10.9275C21.8913 11.4973 21.4123 11.9946 20.8571 12.396Z" fill="#AE3233"/>
</svg>
