<svg width="30" height="30" viewBox="0 0 30 30" fill="none" xmlns="http://www.w3.org/2000/svg">
<path d="M17.4041 14.7495L14.0351 13.1775C13.7411 13.041 13.4996 13.194 13.4996 13.5195V16.4805C13.4996 16.806 13.7411 16.959 14.0351 16.8225L17.4026 15.2505C17.6981 15.1125 17.6981 14.8875 17.4041 14.7495ZM14.9996 0.599976C7.04661 0.599976 0.599609 7.04698 0.599609 15C0.599609 22.953 7.04661 29.4 14.9996 29.4C22.9526 29.4 29.3996 22.953 29.3996 15C29.3996 7.04698 22.9526 0.599976 14.9996 0.599976ZM14.9996 20.85C7.62861 20.85 7.49961 20.1855 7.49961 15C7.49961 9.81448 7.62861 9.14997 14.9996 9.14997C22.3706 9.14997 22.4996 9.81448 22.4996 15C22.4996 20.1855 22.3706 20.85 14.9996 20.85Z" fill="#AE3233"/>
</svg>
