<svg width="14" height="15" viewBox="0 0 14 15" fill="none" xmlns="http://www.w3.org/2000/svg">
<g clip-path="url(#clip0_816_11410)">
<path d="M13.3203 4.75402C13.289 4.04557 13.1745 3.55852 13.0104 3.13648C12.8411 2.68849 12.5806 2.28741 12.2393 1.95399C11.9059 1.61539 11.5022 1.35227 11.0594 1.18562C10.6349 1.0215 10.1504 0.906936 9.44197 0.8757C8.72823 0.841819 8.50164 0.833984 6.69139 0.833984C4.88115 0.833984 4.65456 0.841819 3.94347 0.873055C3.23502 0.90429 2.74796 1.01896 2.32603 1.18297C1.87794 1.35227 1.47686 1.61274 1.14345 1.95399C0.804839 2.28741 0.541828 2.69114 0.375068 3.13393C0.210953 3.55852 0.0963886 4.04292 0.0651529 4.75138C0.0312719 5.46512 0.0234375 5.6917 0.0234375 7.50195C0.0234375 9.3122 0.0312719 9.53879 0.0625076 10.2499C0.0937433 10.9583 0.20841 11.4454 0.372524 11.8674C0.541828 12.3154 0.804839 12.7165 1.14345 13.0499C1.47686 13.3885 1.88059 13.6516 2.32338 13.8183C2.74796 13.9824 3.23237 14.097 3.94092 14.1282C4.65192 14.1595 4.8786 14.1673 6.68885 14.1673C8.4991 14.1673 8.72568 14.1595 9.43678 14.1282C10.1452 14.097 10.6323 13.9824 11.0542 13.8183C11.9503 13.4718 12.6587 12.7634 13.0052 11.8674C13.1692 11.4428 13.2839 10.9583 13.3151 10.2499C13.3463 9.53879 13.3542 9.3122 13.3542 7.50195C13.3542 5.6917 13.3515 5.46512 13.3203 4.75402ZM12.1196 10.1978C12.0909 10.849 11.9815 11.2006 11.8904 11.435C11.6663 12.0159 11.2053 12.4769 10.6244 12.7009C10.39 12.7921 10.0359 12.9015 9.38723 12.9301C8.68397 12.9614 8.47305 12.9691 6.69404 12.9691C4.91503 12.9691 4.70147 12.9614 4.00075 12.9301C3.34958 12.9015 2.99795 12.7921 2.76353 12.7009C2.47447 12.5941 2.21136 12.4248 1.9978 12.2034C1.7764 11.9872 1.6071 11.7267 1.50027 11.4377C1.4091 11.2032 1.29973 10.849 1.27114 10.2004C1.2398 9.49718 1.23207 9.28616 1.23207 7.50714C1.23207 5.72813 1.2398 5.51457 1.27114 4.81395C1.29973 4.16278 1.4091 3.81115 1.50027 3.57673C1.6071 3.28757 1.7764 3.02456 2.00044 2.81089C2.21655 2.58949 2.47702 2.42019 2.76618 2.31346C3.0006 2.2223 3.35487 2.11292 4.00339 2.08423C4.70666 2.05299 4.91767 2.04516 6.69658 2.04516C8.47824 2.04516 8.68916 2.05299 9.38987 2.08423C10.041 2.11292 10.3927 2.2223 10.6271 2.31346C10.9161 2.42019 11.1793 2.58949 11.3928 2.81089C11.6142 3.0271 11.7835 3.28757 11.8904 3.57673C11.9815 3.81115 12.0909 4.16532 12.1196 4.81395C12.1508 5.51721 12.1587 5.72813 12.1587 7.50714C12.1587 9.28616 12.1508 9.49453 12.1196 10.1978Z" fill="white"/>
<path d="M6.69175 4.07666C4.80082 4.07666 3.2666 5.61077 3.2666 7.50181C3.2666 9.39284 4.80082 10.927 6.69175 10.927C8.58278 10.927 10.1169 9.39284 10.1169 7.50181C10.1169 5.61077 8.58278 4.07666 6.69175 4.07666ZM6.69175 9.72362C5.46501 9.72362 4.46994 8.72865 4.46994 7.50181C4.46994 6.27497 5.46501 5.28 6.69175 5.28C7.91859 5.28 8.91356 6.27497 8.91356 7.50181C8.91356 8.72865 7.91859 9.72362 6.69175 9.72362Z" fill="white"/>
<path d="M11.0515 3.94146C11.0515 4.38304 10.6934 4.74108 10.2518 4.74108C9.81019 4.74108 9.45215 4.38304 9.45215 3.94146C9.45215 3.49979 9.81019 3.14185 10.2518 3.14185C10.6934 3.14185 11.0515 3.49979 11.0515 3.94146Z" fill="white"/>
</g>
<defs>
<clipPath id="clip0_816_11410">
<rect width="13.3333" height="13.3333" fill="white" transform="translate(0 0.833984)"/>
</clipPath>
</defs>
</svg>
