<svg width="14" height="15" viewBox="0 0 14 15" fill="none" xmlns="http://www.w3.org/2000/svg">
<g clip-path="url(#clip0_816_11419)">
<path d="M13.3297 14.1666V14.166H13.333V9.27602C13.333 6.88379 12.818 5.04102 10.0214 5.04102C8.67693 5.04102 7.77471 5.77879 7.40638 6.47824H7.36749V5.26435H4.71582V14.166H7.47693V9.75824C7.47693 8.59768 7.69693 7.47546 9.13415 7.47546C10.5503 7.47546 10.5714 8.79991 10.5714 9.83268V14.1666H13.3297Z" fill="white"/>
<path d="M0.219727 5.26514H2.98417V14.1668H0.219727V5.26514Z" fill="white"/>
<path d="M1.60111 0.833252C0.717222 0.833252 0 1.55047 0 2.43436C0 3.31825 0.717222 4.05047 1.60111 4.05047C2.485 4.05047 3.20222 3.31825 3.20222 2.43436C3.20167 1.55047 2.48444 0.833252 1.60111 0.833252V0.833252Z" fill="white"/>
</g>
<defs>
<clipPath id="clip0_816_11419">
<rect width="13.3333" height="13.3333" fill="white" transform="translate(0 0.833252)"/>
</clipPath>
</defs>
</svg>
