<svg width="17" height="16" viewBox="0 0 17 16" fill="none" xmlns="http://www.w3.org/2000/svg">
<g clip-path="url(#clip0_816_11424)">
<path d="M9.19102 8.00001C9.19102 10.485 7.17102 12.5 4.67802 12.5C4.08628 12.5008 3.50018 12.385 2.95319 12.1593C2.40619 11.9336 1.90901 11.6023 1.49003 11.1845C1.07106 10.7666 0.738485 10.2703 0.511309 9.72392C0.284134 9.17753 0.166803 8.59174 0.166016 8.00001C0.166016 5.51401 2.18602 3.50001 4.67802 3.50001C5.26984 3.49909 5.85604 3.61476 6.40315 3.84042C6.95026 4.06608 7.44756 4.39731 7.86664 4.81518C8.28573 5.23306 8.61839 5.7294 8.84563 6.27586C9.07286 6.82232 9.19023 7.40818 9.19102 8.00001ZM14.141 8.00001C14.141 10.34 13.131 12.236 11.885 12.236C10.639 12.236 9.62902 10.339 9.62902 8.00001C9.62902 5.66001 10.639 3.76401 11.885 3.76401C13.131 3.76401 14.141 5.66101 14.141 8.00001ZM16.166 8.00001C16.166 10.096 15.811 11.795 15.372 11.795C14.934 11.795 14.579 10.095 14.579 8.00001C14.579 5.90401 14.934 4.20501 15.373 4.20501C15.811 4.20501 16.166 5.90401 16.166 8.00001Z" fill="white"/>
</g>
<defs>
<clipPath id="clip0_816_11424">
<rect width="16" height="16" fill="white" transform="translate(0.166016)"/>
</clipPath>
</defs>
</svg>
