<svg width="15" height="13" viewBox="0 0 15 13" fill="none" xmlns="http://www.w3.org/2000/svg">
<path d="M14.359 2.04717C13.825 2.2814 13.256 2.43666 12.6628 2.51204C13.2731 2.14768 13.7388 1.57512 13.9578 0.88499C13.3888 1.22422 12.7606 1.46384 12.0912 1.59755C11.5509 1.0223 10.7809 0.666016 9.9409 0.666016C8.31115 0.666016 6.9991 1.98884 6.9991 3.6105C6.9991 3.84384 7.01885 4.06819 7.06731 4.28178C4.62 4.16243 2.45449 2.98948 0.999744 1.20268C0.745769 1.64332 0.596795 2.14768 0.596795 2.69063C0.596795 3.71012 1.12179 4.61384 1.90436 5.13704C1.43141 5.12807 0.967436 4.99076 0.574359 4.77448C0.574359 4.78345 0.574359 4.79512 0.574359 4.80678C0.574359 6.2373 1.59474 7.4255 2.93282 7.69922C2.69321 7.76473 2.43205 7.79614 2.16103 7.79614C1.97256 7.79614 1.78231 7.78537 1.60372 7.74589C1.98513 8.91166 3.06744 9.76871 4.35436 9.79653C3.35282 10.58 2.08115 11.052 0.704487 11.052C0.463077 11.052 0.231538 11.0413 0 11.0117C1.30397 11.8526 2.84936 12.3327 4.5159 12.3327C9.93282 12.3327 12.8944 7.8455 12.8944 3.95602C12.8944 3.82589 12.8899 3.70025 12.8836 3.5755C13.4678 3.16089 13.9587 2.64307 14.359 2.04717Z" fill="white"/>
</svg>
