<svg width="51" height="51" viewBox="0 0 51 51" fill="none" xmlns="http://www.w3.org/2000/svg">
<path d="M25.5 0C11.4181 0 0 11.4181 0 25.5C0 39.5819 11.4181 51 25.5 51C39.5819 51 51 39.5819 51 25.5C51 11.4181 39.5819 0 25.5 0ZM36.4286 26.8661C36.4286 27.1165 36.2237 27.3214 35.9732 27.3214H27.3214V35.9732C27.3214 36.2237 27.1165 36.4286 26.8661 36.4286H24.1339C23.8835 36.4286 23.6786 36.2237 23.6786 35.9732V27.3214H15.0268C14.7763 27.3214 14.5714 27.1165 14.5714 26.8661V24.1339C14.5714 23.8835 14.7763 23.6786 15.0268 23.6786H23.6786V15.0268C23.6786 14.7763 23.8835 14.5714 24.1339 14.5714H26.8661C27.1165 14.5714 27.3214 14.7763 27.3214 15.0268V23.6786H35.9732C36.2237 23.6786 36.4286 23.8835 36.4286 24.1339V26.8661Z" fill="#00A3FF"/>
</svg>
