<svg width="14" height="14" viewBox="0 0 14 14" fill="none" xmlns="http://www.w3.org/2000/svg">
<path d="M7.36726 10.9165C6.88251 9.96187 6.31377 8.99763 5.20339 8.99763C4.99164 8.99763 4.77989 9.03263 4.58477 9.12187L4.20852 8.36675C4.66789 7.973 5.40989 7.65975 6.36452 7.65975C7.84939 7.65975 8.61152 8.3755 9.21702 9.28725C9.57576 8.5085 9.74639 7.45588 9.74639 6.15125C9.74639 2.89275 8.72702 1.21975 6.34702 1.21975C4.00202 1.21975 2.98789 2.89275 2.98789 6.15125C2.98789 9.39225 4.00202 11.0478 6.34789 11.0478C6.71977 11.0478 7.05752 11.0075 7.36814 10.9165H7.36726ZM7.94914 12.054C7.4269 12.1943 6.88864 12.2661 6.34789 12.2675C3.22327 12.2675 0.166016 9.7755 0.166016 6.15125C0.166016 2.49288 3.22414 0 6.34702 0C9.52326 0 12.5508 2.4745 12.5508 6.15125C12.5508 8.19613 11.597 9.85775 10.2101 10.9323C10.6581 11.6034 11.1201 12.0496 11.7615 12.0496C12.4633 12.0496 12.7459 11.5071 12.7931 11.0828H13.7058C13.7591 11.6489 13.4765 14 10.925 14C9.37889 14 8.56252 13.104 7.95002 12.054H7.94914Z" fill="white"/>
</svg>
